<svg width="16" height="16" viewBox="0 0 16 16" fill="none" xmlns="http://www.w3.org/2000/svg">
<g clip-path="url(#clip0_2459_888)">
<mask id="mask0_2459_888" style="mask-type:luminance" maskUnits="userSpaceOnUse" x="0" y="0" width="16" height="16">
<path d="M15.25 15.25V0.749954H0.75V15.25H15.25Z" fill="white" stroke="white" stroke-width="1.5"/>
</mask>
<g mask="url(#mask0_2459_888)">
<path d="M1 4.29231L1.9479 3.3547C2.48524 2.87143 3.29273 2.84587 3.85958 3.29416L7.64286 6.73094C8.25655 7.21629 9.14175 7.14139 9.66517 6.5598L12.9534 3.10587" stroke="white" stroke-miterlimit="10" stroke-linecap="square" stroke-linejoin="round"/>
</g>
<path d="M11.5 5.5C10.7626 6.23874 10.0168 5.51351 10 5.51351L10.6758 4.81L14.2235 1.11712L10.9721 1.0991V0H16L15.9832 6H14.9944L15.0447 1.22523C15.0447 1.42342 14.9944 1.90991 14.743 2.18018L11.5 5.5Z" fill="white"/>
<path d="M7 9.5H9.5V15C9.5 15.2761 9.27614 15.5 9 15.5H7C6.72386 15.5 6.5 15.2761 6.5 15V10C6.5 9.72386 6.72386 9.5 7 9.5Z" stroke="white"/>
<path d="M12.5 7.5H15C15.2761 7.5 15.5 7.72386 15.5 8V15C15.5 15.2761 15.2761 15.5 15 15.5H13C12.7239 15.5 12.5 15.2761 12.5 15V7.5Z" stroke="white"/>
<path d="M1 6.5H3C3.27614 6.5 3.5 6.72386 3.5 7V15C3.5 15.2761 3.27614 15.5 3 15.5H0.5V7C0.5 6.72386 0.723858 6.5 1 6.5Z" stroke="white"/>
</g>
<defs>
<clipPath id="clip0_2459_888">
<rect width="16" height="16" fill="white"/>
</clipPath>
</defs>
</svg>
