<svg width="16" height="16" viewBox="0 0 16 16" fill="none" xmlns="http://www.w3.org/2000/svg">
<g clip-path="url(#clip0_2367_2959)">
<mask id="mask0_2367_2959" style="mask-type:luminance" maskUnits="userSpaceOnUse" x="0" y="0" width="16" height="16">
<path d="M15.5 15.5V0.500047H0.5V15.5H15.5Z" fill="white" stroke="white"/>
</mask>
<g mask="url(#mask0_2367_2959)">
<path d="M3.06771 12.9167V13.5C3.06771 14.5355 3.90718 15.375 4.94271 15.375H13.5C14.5355 15.375 15.375 14.5355 15.375 13.5V4.95834C15.375 3.92281 14.5355 3.08335 13.5 3.08335H12.9323M0.625 11.0417V2.50004C0.625 1.46448 1.46447 0.625043 2.49999 0.625043H11.0573C12.0928 0.625043 12.9323 1.46448 12.9323 2.50004V11.0417C12.9323 12.0772 12.0928 12.9167 11.0573 12.9167H2.49999C1.46447 12.9167 0.625 12.0772 0.625 11.0417Z" stroke="#F1511B" stroke-miterlimit="10" stroke-linecap="round" stroke-linejoin="round"/>
</g>
</g>
<defs>
<clipPath id="clip0_2367_2959">
<rect width="16" height="16" fill="white"/>
</clipPath>
</defs>
</svg>
