<svg width="313" height="29" viewBox="0 0 313 29" fill="none" xmlns="http://www.w3.org/2000/svg">
<path d="M13.0207 0.775807C14.7049 0.775807 16.2967 1.01805 17.7963 1.50253C19.2959 1.98702 20.5994 2.73681 21.7068 3.75192C22.8373 4.74396 23.7255 6.00131 24.3715 7.52398C25.0174 9.04664 25.3404 10.8346 25.3404 12.8879C25.3404 14.9412 25.0174 16.7292 24.3715 18.2518C23.7255 19.7745 22.8373 21.0434 21.7068 22.0585C20.5994 23.0505 19.2959 23.7888 17.7963 24.2733C16.2967 24.7578 14.7049 25 13.0207 25H1.04703V0.775807H13.0207ZM13.5052 19.7745C14.1281 19.7745 14.7971 19.6476 15.5123 19.3938C16.2275 19.117 16.885 18.7017 17.4849 18.148C18.1078 17.5943 18.6153 16.8791 19.0075 16.0024C19.3997 15.1258 19.5958 14.0876 19.5958 12.8879C19.5958 11.7344 19.3997 10.7308 19.0075 9.87718C18.6153 9.0005 18.1193 8.27377 17.5195 7.69701C16.9196 7.12024 16.2506 6.69343 15.5123 6.41658C14.7971 6.13974 14.1281 6.00131 13.5052 6.00131H4.88829C5.18821 6.00131 5.44199 6.02438 5.64963 6.07052C5.88033 6.09359 6.07643 6.13974 6.23793 6.20895C6.42249 6.27816 6.56092 6.39351 6.6532 6.55501C6.74548 6.69343 6.79162 6.878 6.79162 7.1087V19.7745H13.5052ZM48.1209 16.3485C48.1209 16.6023 48.1094 16.7753 48.0863 16.8676C48.0863 16.9368 48.0863 17.0868 48.0863 17.3175H31.8561C31.9484 17.8942 32.156 18.4133 32.479 18.8747C32.802 19.3131 33.2057 19.6937 33.6902 20.0167C34.1747 20.3397 34.763 20.582 35.4551 20.7435C36.1703 20.905 36.8624 20.9857 37.5315 20.9857C37.6238 20.9857 37.716 20.9857 37.8083 20.9857C38.4774 20.9857 39.0772 20.9626 39.6078 20.9165C40.1385 20.8473 40.5999 20.7204 40.9921 20.5358C41.4073 20.3513 41.788 20.0975 42.1341 19.7745C42.5032 19.4515 42.78 19.0247 42.9646 18.4941L48.2247 18.6671C48.0171 20.0283 47.5557 21.1357 46.8405 21.9893C46.1484 22.8429 45.3294 23.5119 44.3835 23.9964C43.4376 24.4578 42.3994 24.7808 41.2689 24.9654C40.1385 25.1269 38.9272 25.2076 37.6353 25.2076C36.1588 25.2076 34.7515 25.0346 33.4134 24.6885C32.0753 24.3194 30.8987 23.7657 29.8836 23.0275C28.8684 22.2892 28.061 21.3664 27.4611 20.259C26.8844 19.1516 26.596 17.8481 26.596 16.3485C26.596 14.8489 26.8844 13.5454 27.4611 12.438C28.061 11.3306 28.8684 10.4078 29.8836 9.66955C30.8987 8.93129 32.0753 8.38913 33.4134 8.04307C34.7515 7.67393 36.1588 7.48937 37.6353 7.48937C39.1349 7.48937 40.5191 7.67393 41.788 8.04307C43.08 8.4122 44.1874 8.96589 45.1102 9.70415C46.0561 10.4193 46.7943 11.3306 47.325 12.438C47.8556 13.5454 48.1209 14.8489 48.1209 16.3485ZM37.8083 11.4345C37.7391 11.4345 37.6699 11.4345 37.6007 11.4345C36.9778 11.4345 36.2857 11.5267 35.5243 11.7113C34.763 11.8959 34.1055 12.2189 33.5518 12.6803C33.0212 13.1186 32.6059 13.6954 32.306 14.4106C32.0061 15.1258 31.8561 15.9563 31.8561 16.9022C31.8561 17.0406 31.8561 17.179 31.8561 17.3175C31.8561 16.6484 31.9368 16.1755 32.0983 15.8986C32.2598 15.5987 32.4675 15.3219 32.7212 15.0681C32.975 14.7912 33.3095 14.5951 33.7248 14.4798C34.1401 14.3644 34.5208 14.3067 34.8668 14.3067H42.93C42.7454 13.7992 42.5147 13.3839 42.2379 13.0609C41.9841 12.7379 41.6496 12.4496 41.2343 12.1958C40.819 11.942 40.3 11.7574 39.677 11.6421C39.0772 11.5037 38.4543 11.4345 37.8083 11.4345ZM49.5427 16.3485C49.5427 14.8489 49.8311 13.5454 50.4079 12.438C51.0077 11.3306 51.8037 10.4078 52.7957 9.66955C53.8108 8.93129 54.9874 8.38913 56.3255 8.04307C57.6636 7.67393 59.0709 7.48937 60.5474 7.48937C61.6779 7.48937 62.8314 7.63933 64.008 7.93925C65.1846 8.23917 66.2459 8.70058 67.1918 9.32349C68.1607 9.92332 68.9682 10.6847 69.6142 11.6075C70.2833 12.5072 70.6639 13.58 70.7562 14.8258L65.4615 15.0335C65.3461 14.5951 65.15 14.1914 64.8732 13.8223C64.5963 13.4301 64.2503 13.0955 63.835 12.8187C63.4428 12.5188 62.9699 12.2881 62.4162 12.1266C61.8855 11.942 61.2626 11.8497 60.5474 11.8497C59.7169 11.8497 58.9671 11.9535 58.298 12.1612C57.6521 12.3688 57.0984 12.6687 56.637 13.0609C56.1986 13.4531 55.8526 13.9376 55.5988 14.5144C55.3681 15.0681 55.2527 15.6795 55.2527 16.3485C55.2527 16.9945 55.3681 17.5943 55.5988 18.148C55.8526 18.7017 56.1986 19.1747 56.637 19.5669C57.0984 19.9591 57.6405 20.2705 58.2634 20.5012C58.8863 20.7089 59.5785 20.8127 60.3398 20.8127C60.4321 20.8127 60.5128 20.8127 60.582 20.8127C61.9201 20.7665 62.9814 20.4897 63.7658 19.9821C64.5502 19.4746 65.1039 18.7479 65.4269 17.802L70.7562 18.0096C70.6639 19.2323 70.2833 20.2936 69.6142 21.1933C68.9682 22.07 68.1607 22.8083 67.1918 23.4081C66.2459 24.008 65.1846 24.4578 64.008 24.7578C62.8314 25.0577 61.6779 25.2076 60.5474 25.2076C59.0709 25.2076 57.6636 25.0346 56.3255 24.6885C54.9874 24.3194 53.8108 23.7657 52.7957 23.0275C51.8037 22.2892 51.0077 21.3664 50.4079 20.259C49.8311 19.1516 49.5427 17.8481 49.5427 16.3485ZM85.9431 7.69701H94.2485L85.6316 14.4452L94.7676 24.9654H92.276V25L92.2414 24.9654H87.535L81.3059 17.7673L78.6066 19.9129V25H72.8274V0.775807H78.6066L78.5028 12.3342C78.5028 12.7264 78.4336 13.1532 78.2952 13.6146C78.1798 14.053 78.0299 14.4452 77.8453 14.7912L77.9145 14.8258C78.0991 14.4798 78.3298 14.1222 78.6066 13.7531C78.8835 13.3839 79.1834 13.084 79.5064 12.8533L85.9431 7.69701Z" fill="#161A20"/>
<path d="M116.927 19.7745V25H96.8556V0.775807H102.566V18.4595C102.566 18.8517 102.473 19.2554 102.289 19.6707C102.127 20.0629 101.908 20.3974 101.631 20.6743L101.666 20.7089C101.943 20.432 102.277 20.2128 102.669 20.0513C103.085 19.8668 103.488 19.7745 103.881 19.7745H116.927ZM118.991 5.3438V0.775807H124.736V5.3438H118.991ZM124.667 7.69701V25H119.06V7.69701H124.667ZM132.923 12.1958C133.269 11.3652 133.696 10.65 134.204 10.0502C134.734 9.45038 135.299 8.95436 135.899 8.56216C136.522 8.16995 137.157 7.88157 137.803 7.69701C138.449 7.51244 139.071 7.42016 139.671 7.42016C140.894 7.42016 141.967 7.63933 142.89 8.07767C143.813 8.51601 144.574 9.17353 145.174 10.0502C145.774 10.9038 146.212 11.9651 146.489 13.234C146.789 14.4798 146.939 15.9217 146.939 17.5597V25H141.229V17.5251C141.229 16.8099 141.125 16.1755 140.917 15.6218C140.733 15.0681 140.467 14.6067 140.121 14.2375C139.798 13.8684 139.394 13.5916 138.91 13.407C138.449 13.2224 137.964 13.1301 137.457 13.1301C136.926 13.1301 136.372 13.2109 135.795 13.3724C135.219 13.5339 134.688 13.8223 134.204 14.2375C133.719 14.6528 133.315 15.2065 132.992 15.8986C132.669 16.5907 132.508 17.4674 132.508 18.5287V25H126.798V7.69701H132.508V12.092C132.508 12.4611 132.485 12.8648 132.439 13.3032C132.393 13.7184 132.335 14.0991 132.266 14.4452H132.335C132.404 14.0991 132.473 13.7184 132.542 13.3032C132.635 12.8648 132.762 12.4957 132.923 12.1958ZM162.117 7.69701H170.422L161.805 14.4452L170.941 24.9654H168.45V25L168.415 24.9654H163.709L157.48 17.7673L154.78 19.9129V25H149.001V0.775807H154.78L154.677 12.3342C154.677 12.7264 154.607 13.1532 154.469 13.6146C154.354 14.053 154.204 14.4452 154.019 14.7912L154.088 14.8258C154.273 14.4798 154.503 14.1222 154.78 13.7531C155.057 13.3839 155.357 13.084 155.68 12.8533L162.117 7.69701Z" fill="#F1511B"/>
<path d="M186.297 19.08C187.086 19.272 187.657 19.608 188.009 20.088C188.361 20.5573 188.537 21.16 188.537 21.896C188.537 22.9093 188.217 23.6827 187.577 24.216C186.948 24.7387 185.998 25 184.729 25H181.065V13.704H184.729C185.486 13.704 186.121 13.8213 186.633 14.056C187.156 14.2907 187.54 14.6213 187.785 15.048C188.041 15.464 188.169 15.9547 188.169 16.52C188.169 17.16 188.014 17.704 187.705 18.152C187.396 18.5893 186.926 18.8987 186.297 19.08ZM182.553 18.616H184.297C185.076 18.616 185.652 18.4453 186.025 18.104C186.409 17.752 186.601 17.272 186.601 16.664C186.601 15.4373 185.806 14.824 184.217 14.824H182.553V18.616ZM184.217 23.88C185.177 23.88 185.87 23.7147 186.297 23.384C186.724 23.0427 186.937 22.5253 186.937 21.832C186.937 21.128 186.724 20.6053 186.297 20.264C185.87 19.9227 185.214 19.752 184.329 19.752H182.553V23.88H184.217ZM197.107 17.208L192.547 28.216H191.123L192.467 24.984L189.491 17.208H191.011L193.235 23.448L195.619 17.208H197.107Z" fill="#F1511B"/>
<g clip-path="url(#clip0_2248_4203)">
<path d="M230.831 12.1157C231.743 12.1157 232.615 12.2314 233.408 12.5015C234.2 12.7715 234.914 13.1573 235.508 13.6973C236.103 14.2374 236.618 14.8932 236.935 15.7033C237.292 16.5134 237.451 17.4392 237.451 18.5193C237.451 19.5994 237.292 20.5252 236.935 21.3353C236.579 22.1454 236.103 22.8012 235.508 23.3413C234.914 23.8813 234.2 24.2671 233.408 24.4985C232.615 24.7685 231.743 24.8842 230.831 24.8842H224.767V12.1157H230.831ZM231.029 22.4926C231.426 22.4926 231.862 22.4154 232.337 22.2611C232.773 22.1068 233.209 21.8754 233.566 21.5668C233.923 21.2581 234.24 20.8338 234.478 20.3323C234.716 19.8309 234.835 19.2136 234.835 18.5193C234.835 17.8249 234.716 17.2463 234.478 16.7448C234.24 16.2433 233.923 15.819 233.566 15.4718C233.209 15.1246 232.813 14.8932 232.337 14.7389C231.901 14.5846 231.465 14.5074 231.029 14.5074H226.431C226.59 14.5074 226.709 14.5074 226.828 14.546C226.947 14.546 227.066 14.5846 227.145 14.6231C227.224 14.6617 227.303 14.7003 227.343 14.7774C227.383 14.8546 227.422 14.9317 227.422 15.0861V22.4926H231.029ZM249.699 14.5074H241.216V17.632H249.144V19.6766H241.216V22.4926H249.699V24.8842H238.521V12.1157H249.699V14.5074ZM260.004 17.6706C260.44 17.7864 260.797 17.9792 261.075 18.2107C261.392 18.4421 261.63 18.7122 261.788 18.9822C261.947 19.2522 262.105 19.5609 262.184 19.908C262.303 20.2552 262.343 20.6024 262.343 21.0653C262.343 22.4154 261.907 23.4184 261.075 24.0356C260.242 24.6142 259.053 24.9228 257.547 24.9228H250.69V12.1543H256.992C257.705 12.1543 258.34 12.2315 258.934 12.3472C259.489 12.4629 260.004 12.6558 260.361 12.9258C260.758 13.1958 261.075 13.5045 261.273 13.9288C261.511 14.3145 261.63 14.816 261.63 15.3561C261.63 15.5104 261.59 15.6647 261.511 15.8576C261.431 16.0119 261.352 16.2047 261.193 16.3976C261.075 16.5905 260.916 16.7448 260.678 16.9377C260.44 17.1306 260.203 17.2463 259.925 17.362C259.767 17.4392 259.608 17.4777 259.41 17.5163C259.212 17.5549 259.053 17.5549 258.895 17.5549V17.5935C259.053 17.5935 259.212 17.5935 259.41 17.5935C259.648 17.5935 259.846 17.5935 260.004 17.6706ZM253.425 14.4688V17.4777H257.745C258.34 17.4777 258.776 17.362 259.053 17.1306C259.331 16.8605 259.489 16.4748 259.489 15.9733C259.489 15.7033 259.41 15.4718 259.291 15.2789C259.172 15.0861 259.013 14.9317 258.815 14.816C258.617 14.7003 258.379 14.6231 258.102 14.546C257.824 14.4688 257.547 14.4688 257.269 14.4688H253.425ZM257.824 22.4926C258.102 22.4926 258.379 22.454 258.617 22.4154C258.855 22.3383 259.093 22.2226 259.291 22.1068C259.489 21.9525 259.608 21.7982 259.727 21.5668C259.846 21.3739 259.885 21.1424 259.885 20.8724C259.885 20.4481 259.727 20.1009 259.41 19.8694C259.093 19.638 258.657 19.5223 258.102 19.5223H253.425V22.5311H257.824V22.4926ZM277.009 18.5193C277.009 19.638 276.811 20.6024 276.454 21.4125C276.097 22.2226 275.621 22.9169 275.027 23.4184C274.433 23.9585 273.679 24.3442 272.847 24.6142C272.015 24.8843 271.143 25 270.191 25C269.24 25 268.368 24.8843 267.536 24.6142C266.703 24.3442 265.99 23.9585 265.395 23.4184C264.801 22.8783 264.285 22.2226 263.929 21.4125C263.572 20.6024 263.374 19.638 263.374 18.5193C263.374 17.4006 263.572 16.4362 263.929 15.6261C264.285 14.816 264.761 14.1217 265.395 13.5816C265.99 13.0415 266.703 12.6172 267.496 12.3858C268.289 12.1157 269.16 12 270.072 12C270.112 12 270.151 12 270.191 12C271.143 12 272.015 12.1543 272.847 12.4243C273.679 12.6944 274.393 13.0801 275.027 13.6202C275.621 14.1602 276.137 14.816 276.454 15.6261C276.85 16.4362 277.009 17.4006 277.009 18.5193ZM274.353 18.5193C274.353 17.8635 274.234 17.2849 273.996 16.7834C273.759 16.2819 273.441 15.8576 273.085 15.4718C272.728 15.1246 272.292 14.8546 271.777 14.6617C271.262 14.4688 270.746 14.3917 270.231 14.3531C269.716 14.3531 269.2 14.4303 268.685 14.6231C268.21 14.816 267.773 15.0861 267.377 15.4332C266.98 15.7804 266.664 16.2047 266.426 16.7448C266.188 17.2463 266.069 17.8249 266.069 18.4807C266.069 19.1365 266.188 19.7151 266.426 20.2166C266.664 20.7181 266.98 21.1424 267.337 21.5282C267.734 21.8754 268.17 22.1454 268.685 22.3383C269.2 22.5311 269.716 22.6083 270.231 22.6083C270.786 22.6083 271.301 22.5311 271.816 22.3383C272.331 22.1454 272.768 21.8754 273.124 21.5282C273.521 21.181 273.798 20.7567 274.036 20.2166C274.234 19.7151 274.353 19.1365 274.353 18.5193ZM287.909 12.1157H290.604V24.8842H287.83L281.25 16.7448C281.091 16.5519 280.933 16.3205 280.814 16.089C280.695 15.819 280.576 15.5875 280.457 15.3561H280.418C280.497 15.5875 280.576 15.8576 280.616 16.1662C280.695 16.4748 280.695 16.7062 280.695 16.9763V24.9228H278V12.1543H280.775L287.355 20.3709C287.513 20.5638 287.632 20.7952 287.79 21.0653C287.949 21.3353 288.068 21.5668 288.147 21.7982H288.187C288.068 21.5668 287.989 21.2968 287.949 21.0267C287.909 20.7181 287.87 20.4866 287.87 20.2166V12.1157H287.909Z" fill="#161A20"/>
<path d="M298.136 12.1155H300.831V24.884H298.056L291.476 16.7446C291.318 16.5517 291.159 16.3202 291.041 16.0888C290.922 15.8187 290.803 15.5873 290.684 15.3558H290.644C290.723 15.5873 290.803 15.8573 290.842 16.1659C290.922 16.4745 290.922 16.706 290.922 16.976V24.9226H288.226V12.1541H291.001L297.58 20.3707C297.739 20.5635 297.858 20.795 298.017 21.065C298.175 21.335 298.294 21.5665 298.373 21.798H298.413C298.294 21.5665 298.215 21.2965 298.175 21.0264C298.136 20.7178 298.096 20.4864 298.096 20.2164V12.1155H298.136ZM313 14.5072H304.517V17.6318H312.445V19.6763H304.517V22.4923H313V24.884H301.822V12.1155H313V14.5072Z" fill="#161A20"/>
<path d="M211.012 24.1897C209.268 25.7713 208.04 23.8425 208 23.8425L217.989 14.43L210.299 14.3915V12.0383H222.19L222.151 24.884H219.812L219.931 14.6615C219.931 15.0858 219.812 16.1274 219.217 16.706L211.012 24.1897Z" fill="#F1511B"/>
</g>
<defs>
<clipPath id="clip0_2248_4203">
<rect width="105" height="13" fill="white" transform="translate(208 12)"/>
</clipPath>
</defs>
</svg>
