<svg width="16" height="16" viewBox="0 0 16 16" fill="none" xmlns="http://www.w3.org/2000/svg">
<g opacity="0.5" clip-path="url(#clip0_2339_4531)">
<path d="M8 0C3.57803 0 0 3.57834 0 8C0 12.422 3.57834 16 8 16C12.422 16 16 12.4217 16 8C16 3.57803 12.4216 0 8 0ZM8 14.75C4.26897 14.75 1.25 11.7308 1.25 8C1.25 4.26897 4.26922 1.25 8 1.25C11.731 1.25 14.75 4.26922 14.75 8C14.75 11.731 11.7308 14.75 8 14.75Z" fill="#161A20"/>
<path d="M8 6.69824C7.65481 6.69824 7.375 6.97805 7.375 7.32324V11.348C7.375 11.6932 7.65481 11.973 8 11.973C8.34519 11.973 8.625 11.6932 8.625 11.348V7.32324C8.625 6.97805 8.34519 6.69824 8 6.69824Z" fill="#161A20"/>
<path d="M8 5.93262C8.46599 5.93262 8.84375 5.55486 8.84375 5.08887C8.84375 4.62288 8.46599 4.24512 8 4.24512C7.53401 4.24512 7.15625 4.62288 7.15625 5.08887C7.15625 5.55486 7.53401 5.93262 8 5.93262Z" fill="#161A20"/>
</g>
<defs>
<clipPath id="clip0_2339_4531">
<rect width="16" height="16" fill="white"/>
</clipPath>
</defs>
</svg>
