<svg width="111" height="14" viewBox="0 0 111 14" fill="none" xmlns="http://www.w3.org/2000/svg">
<path d="M3.15586 13.1691C1.32879 14.8723 0.0415245 12.7952 0 12.7952L10.4642 2.65867L2.40842 2.61713V0.0830078H14.8658L14.8242 13.9168H12.3743L12.4989 2.90793C12.4989 3.36491 12.3743 4.48657 11.7514 5.10972L3.15586 13.1691Z" fill="#F1511B"/>
<path d="M24.2195 0.124624C25.1745 0.124624 26.0881 0.249253 26.9185 0.540054C27.749 0.830856 28.4965 1.24629 29.1193 1.82789C29.7422 2.40949 30.282 3.11572 30.6142 3.98813C30.9879 4.86053 31.154 5.85756 31.154 7.02077C31.154 8.18397 30.9879 9.18101 30.6142 10.0534C30.2405 10.9258 29.7422 11.632 29.1193 12.2136C28.4965 12.7953 27.749 13.2107 26.9185 13.4599C26.0881 13.7507 25.1745 13.8754 24.2195 13.8754H17.8662V0.124624H24.2195ZM24.4271 11.2997C24.8423 11.2997 25.2991 11.2166 25.7974 11.0504C26.2542 10.8843 26.7109 10.635 27.0846 10.3027C27.4584 9.97032 27.7906 9.51335 28.0397 8.97329C28.2889 8.43323 28.4134 7.76854 28.4134 7.02077C28.4134 6.27299 28.2889 5.64985 28.0397 5.10979C27.7906 4.56973 27.4584 4.11276 27.0846 3.73887C26.7109 3.36499 26.2957 3.11572 25.7974 2.94955C25.3406 2.78338 24.8838 2.7003 24.4271 2.7003H19.6102C19.7763 2.7003 19.9009 2.70029 20.0255 2.74184C20.1501 2.74184 20.2746 2.78338 20.3577 2.82492C20.4407 2.86646 20.5238 2.90801 20.5653 2.9911C20.6068 3.07418 20.6483 3.15727 20.6483 3.32344V11.2997H24.4271ZM43.9851 2.7003H35.0989V6.06528H43.4038V8.26706H35.0989V11.2997H43.9851V13.8754H32.2752V0.124624H43.9851V2.7003ZM54.7815 6.10682C55.2382 6.23145 55.612 6.43917 55.9026 6.68842C56.2348 6.93768 56.484 7.22848 56.6501 7.51928C56.8162 7.81009 56.9823 8.14243 57.0653 8.51632C57.1899 8.89021 57.2314 9.2641 57.2314 9.76261C57.2314 11.2166 56.7746 12.2967 55.9026 12.9614C55.0306 13.5846 53.7849 13.9169 52.2069 13.9169H45.0232V0.16617H51.6256C52.3731 0.16617 53.0374 0.249256 53.6603 0.373885C54.2416 0.498514 54.7815 0.706229 55.1552 0.99703C55.5704 1.28783 55.9026 1.62018 56.1102 2.07715C56.3594 2.49258 56.484 3.03264 56.484 3.61424C56.484 3.78041 56.4424 3.94659 56.3594 4.1543C56.2763 4.32048 56.1933 4.52819 56.0272 4.7359C55.9026 4.94362 55.7365 5.10979 55.4874 5.3175C55.2382 5.52522 54.9891 5.64985 54.6984 5.77448C54.5323 5.85756 54.3662 5.89911 54.1586 5.94065C53.951 5.98219 53.7849 5.98219 53.6188 5.98219V6.02374C53.7849 6.02374 53.951 6.02374 54.1586 6.02374C54.4077 6.02374 54.6154 6.02374 54.7815 6.10682ZM47.8884 2.65875V5.89911H52.4146C53.0374 5.89911 53.4942 5.77448 53.7849 5.52522C54.0755 5.23442 54.2416 4.81899 54.2416 4.27893C54.2416 3.98813 54.1586 3.73887 54.034 3.53116C53.9095 3.32344 53.7434 3.15727 53.5357 3.03264C53.3281 2.90801 53.079 2.82492 52.7883 2.74184C52.4976 2.65875 52.207 2.65875 51.9163 2.65875H47.8884ZM52.4976 11.2997C52.7883 11.2997 53.079 11.2582 53.3281 11.2166C53.5773 11.1335 53.8264 11.0089 54.034 10.8843C54.2416 10.7181 54.3662 10.5519 54.4908 10.3027C54.6154 10.095 54.6569 9.8457 54.6569 9.5549C54.6569 9.09792 54.4908 8.72403 54.1586 8.47478C53.8264 8.22552 53.3696 8.10089 52.7883 8.10089H47.8884V11.3412H52.4976V11.2997ZM72.5955 7.02077C72.5955 8.22552 72.3878 9.26409 72.0141 10.1365C71.6404 11.0089 71.1421 11.7567 70.5192 12.2967C69.8964 12.8783 69.1074 13.2938 68.2354 13.5846C67.3634 13.8754 66.4498 14 65.4533 14C64.4567 14 63.5431 13.8754 62.6711 13.5846C61.7991 13.2938 61.0517 12.8783 60.4288 12.2967C59.8059 11.7151 59.2661 11.0089 58.8924 10.1365C58.5187 9.26409 58.3111 8.22552 58.3111 7.02077C58.3111 5.81602 58.5187 4.77745 58.8924 3.90504C59.2661 3.03264 59.7644 2.28486 60.4288 1.70326C61.0517 1.12166 61.7991 0.664689 62.6296 0.41543C63.4601 0.124629 64.3736 0 65.3287 0C65.3702 0 65.4117 0 65.4533 0C66.4498 0 67.3634 0.166168 68.2354 0.45697C69.1074 0.747771 69.8549 1.1632 70.5192 1.74481C71.1421 2.32641 71.6819 3.03264 72.0141 3.90504C72.4294 4.77745 72.5955 5.81602 72.5955 7.02077ZM69.8133 7.02077C69.8133 6.31454 69.6888 5.69139 69.4396 5.15133C69.1905 4.61127 68.8583 4.1543 68.4845 3.73887C68.1108 3.36499 67.654 3.07418 67.1142 2.86647C66.5744 2.65875 66.0346 2.57566 65.4948 2.53412C64.955 2.53412 64.4151 2.61721 63.8753 2.82492C63.377 3.03264 62.9203 3.32344 62.505 3.69733C62.0898 4.07121 61.7576 4.52819 61.5084 5.10979C61.2593 5.64985 61.1347 6.27299 61.1347 6.97922C61.1347 7.68546 61.2593 8.3086 61.5084 8.84866C61.7576 9.38872 62.0898 9.8457 62.4635 10.2611C62.8787 10.635 63.3355 10.9258 63.8753 11.1335C64.4151 11.3412 64.955 11.4243 65.4948 11.4243C66.0761 11.4243 66.6159 11.3412 67.1558 11.1335C67.6956 10.9258 68.1523 10.635 68.5261 10.2611C68.9413 9.88724 69.232 9.43026 69.4811 8.84866C69.6888 8.3086 69.8133 7.68546 69.8133 7.02077ZM84.0147 0.124624H86.8384V13.8754H83.9316L77.0386 5.10979C76.8725 4.90207 76.7064 4.65282 76.5818 4.40356C76.4572 4.11276 76.3327 3.8635 76.2081 3.61424H76.1666C76.2496 3.8635 76.3327 4.1543 76.3742 4.48664C76.4572 4.81899 76.4572 5.06825 76.4572 5.35905V13.9169H73.6336V0.16617H76.5403L83.4334 9.01484C83.5995 9.22255 83.724 9.47181 83.8901 9.76261C84.0562 10.0534 84.1808 10.3027 84.2638 10.5519H84.3054C84.1808 10.3027 84.0977 10.0119 84.0562 9.72107C84.0147 9.38872 83.9732 9.13946 83.9732 8.84866V0.124624H84.0147Z" fill="#161A20"/>
<path d="M94.7298 0.124512H97.5534V13.8753H94.6467L87.7536 5.10967C87.5875 4.90196 87.4214 4.6527 87.2969 4.40344C87.1723 4.11264 87.0477 3.86339 86.9232 3.61413H86.8816C86.9647 3.86339 87.0477 4.15419 87.0893 4.48653C87.1723 4.81887 87.1723 5.06813 87.1723 5.35894V13.9168H84.3486V0.166057H87.2553L94.1484 9.01472C94.3145 9.22244 94.4391 9.4717 94.6052 9.7625C94.7713 10.0533 94.8959 10.3026 94.9789 10.5518H95.0204C94.8959 10.3026 94.8128 10.0118 94.7713 9.72095C94.7298 9.38861 94.6882 9.13935 94.6882 8.84855V0.124512H94.7298ZM110.301 2.70018H101.415V6.06517H109.72V8.26695H101.415V11.2996H110.301V13.8753H98.5915V0.124512H110.301V2.70018Z" fill="#161A20"/>
</svg>
