<svg width="442" height="56" viewBox="0 0 442 56" fill="none" xmlns="http://www.w3.org/2000/svg">
<path d="M13.0219 52.6765C5.71358 59.4895 0.564535 51.1809 0.398438 51.1809L42.2551 10.6349L10.0321 10.4688V0.332275H59.8615L59.6954 55.6676H49.8956L50.3939 11.632C50.3939 13.4599 49.8956 17.9465 47.4041 20.4391L13.0219 52.6765Z" fill="#F1511B"/>
<path d="M97.2743 0.498496C101.095 0.498496 104.749 0.997012 108.071 2.16022C111.393 3.32342 114.382 4.98515 116.874 7.31156C119.365 9.63797 121.525 12.4629 122.853 15.9525C124.348 19.4421 125.013 23.4303 125.013 28.0831C125.013 32.7359 124.348 36.724 122.853 40.2136C121.358 43.7033 119.365 46.5282 116.874 48.8546C114.382 51.181 111.393 52.8427 108.071 53.8398C104.749 55.003 101.095 55.5015 97.2743 55.5015H71.8613V0.498496H97.2743ZM98.1048 45.1988C99.7658 45.1988 101.593 44.8665 103.586 44.2018C105.413 43.5371 107.24 42.54 108.735 41.2107C110.23 39.8813 111.559 38.0534 112.555 35.8932C113.552 33.7329 114.05 31.0742 114.05 28.0831C114.05 25.092 113.552 22.5994 112.555 20.4392C111.559 18.2789 110.23 16.451 108.735 14.9555C107.24 13.4599 105.579 12.4629 103.586 11.7982C101.759 11.1335 99.9319 10.8012 98.1048 10.8012H78.8374C79.5018 10.8012 80.0001 10.8012 80.4984 10.9673C80.9967 10.9673 81.495 11.1335 81.8272 11.2997C82.1594 11.4659 82.4916 11.632 82.6577 11.9644C82.8238 12.2967 82.9899 12.6291 82.9899 13.2938V45.1988H98.1048ZM176.337 10.8012H140.792V24.2611H174.012V33.0682H140.792V45.1988H176.337V55.5015H129.497V0.498496H176.337V10.8012ZM219.522 24.4273C221.349 24.9258 222.844 25.7567 224.007 26.7537C225.336 27.7507 226.332 28.9139 226.997 30.0771C227.661 31.2403 228.326 32.5697 228.658 34.0653C229.156 35.5608 229.322 37.0564 229.322 39.0504C229.322 44.8665 227.495 49.1869 224.007 51.8457C220.519 54.3383 215.536 55.6677 209.224 55.6677H180.489V0.664678H206.899C209.889 0.664678 212.546 0.997023 215.038 1.49554C217.363 1.99406 219.522 2.82492 221.017 3.98812C222.678 5.15133 224.007 6.48071 224.837 8.30861C225.834 9.97033 226.332 12.1306 226.332 14.457C226.332 15.1217 226.166 15.7864 225.834 16.6172C225.502 17.2819 225.17 18.1128 224.505 18.9436C224.007 19.7745 223.343 20.4392 222.346 21.27C221.349 22.1009 220.353 22.5994 219.19 23.0979C218.526 23.4303 217.861 23.5964 217.031 23.7626C216.2 23.9288 215.536 23.9288 214.872 23.9288V24.095C215.536 24.095 216.2 24.095 217.031 24.095C218.027 24.095 218.858 24.095 219.522 24.4273ZM191.95 10.635V23.5964H210.055C212.546 23.5964 214.373 23.0979 215.536 22.1009C216.699 20.9377 217.363 19.2759 217.363 17.1157C217.363 15.9525 217.031 14.9555 216.533 14.1246C216.034 13.2938 215.37 12.6291 214.539 12.1305C213.709 11.632 212.712 11.2997 211.55 10.9673C210.387 10.635 209.224 10.635 208.062 10.635H191.95ZM210.387 45.1988C211.55 45.1988 212.712 45.0326 213.709 44.8665C214.706 44.5341 215.702 44.0356 216.533 43.5371C217.363 42.8724 217.861 42.2077 218.36 41.2107C218.858 40.3798 219.024 39.3828 219.024 38.2196C219.024 36.3917 218.36 34.8961 217.031 33.8991C215.702 32.9021 213.875 32.4036 211.55 32.4036H191.95V45.365H210.387V45.1988ZM290.778 28.0831C290.778 32.9021 289.948 37.0564 288.453 40.546C286.958 44.0356 284.965 47.0267 282.473 49.1869C279.982 51.5133 276.826 53.1751 273.338 54.3383C269.85 55.5015 266.196 56 262.209 56C258.223 56 254.569 55.5015 251.081 54.3383C247.593 53.1751 244.603 51.5133 242.112 49.1869C239.62 46.8605 237.461 44.0356 235.966 40.546C234.471 37.0564 233.641 32.9021 233.641 28.0831C233.641 23.2641 234.471 19.1098 235.966 15.6202C237.461 12.1306 239.454 9.13945 242.112 6.81304C244.603 4.48663 247.593 2.65875 250.915 1.66172C254.237 0.498516 257.891 0 261.711 0C261.877 0 262.043 0 262.209 0C266.196 0 269.85 0.664673 273.338 1.82788C276.826 2.99108 279.816 4.65281 282.473 6.97922C284.965 9.30563 287.124 12.1306 288.453 15.6202C290.114 19.1098 290.778 23.2641 290.778 28.0831ZM279.65 28.0831C279.65 25.2582 279.151 22.7656 278.155 20.6053C277.158 18.4451 275.83 16.6172 274.335 14.9555C272.84 13.4599 271.013 12.2967 268.853 11.4659C266.694 10.635 264.535 10.3027 262.376 10.1365C260.216 10.1365 258.057 10.4688 255.898 11.2997C253.905 12.1305 252.078 13.2938 250.417 14.7893C248.756 16.2849 247.427 18.1127 246.43 20.4392C245.434 22.5994 244.935 25.092 244.935 27.9169C244.935 30.7418 245.434 33.2344 246.43 35.3946C247.427 37.5549 248.756 39.3828 250.25 41.0445C251.911 42.5401 253.739 43.7032 255.898 44.5341C258.057 45.365 260.216 45.6973 262.376 45.6973C264.701 45.6973 266.86 45.365 269.02 44.5341C271.179 43.7032 273.006 42.5401 274.501 41.0445C276.162 39.549 277.324 37.7211 278.321 35.3946C279.152 33.2344 279.65 30.7418 279.65 28.0831ZM336.455 0.498496H347.75V55.5015H336.123L308.551 20.4392C307.886 19.6083 307.222 18.6113 306.724 17.6142C306.225 16.451 305.727 15.454 305.229 14.457H305.063C305.395 15.454 305.727 16.6172 305.893 17.9466C306.225 19.2759 306.225 20.273 306.225 21.4362V55.6677H294.931V0.664678H306.558L334.13 36.0593C334.794 36.8902 335.293 37.8872 335.957 39.0504C336.621 40.2137 337.12 41.2107 337.452 42.2077H337.618C337.12 41.2107 336.787 40.0475 336.621 38.8843C336.455 37.5549 336.289 36.5578 336.289 35.3946V0.498496H336.455Z" fill="#161A20"/>
<path d="M379.315 0.498047H390.61V55.501H378.983L351.411 20.4387C350.747 19.6078 350.082 18.6108 349.584 17.6138C349.086 16.4506 348.587 15.4536 348.089 14.4565H347.923C348.255 15.4536 348.587 16.6167 348.753 17.9461C349.086 19.2755 349.086 20.2725 349.086 21.4357V55.6672H337.791V0.664229H349.418L376.99 36.0589C377.655 36.8898 378.153 37.8868 378.817 39.05C379.482 40.2132 379.98 41.2102 380.312 42.2073H380.478C379.98 41.2102 379.648 40.047 379.482 38.8838C379.316 37.5544 379.149 36.5574 379.149 35.3942V0.498047H379.315ZM441.602 10.8007H406.057V24.2607H439.277V33.0678H406.057V45.1984H441.602V55.501H394.763V0.498047H441.602V10.8007Z" fill="#161A20"/>
</svg>
