<svg width="10" height="10" viewBox="0 0 10 10" fill="none" xmlns="http://www.w3.org/2000/svg">
<g opacity="0.2" clip-path="url(#clip0_2910_6054)">
<path fill-rule="evenodd" clip-rule="evenodd" d="M5 0C7.76142 0 10 2.23858 10 5C10 7.76142 7.76142 10 5 10C2.23858 10 0 7.76142 0 5C0 2.23858 2.23858 0 5 0ZM3.48488 3.16627C3.34457 3.39055 3.27441 3.61195 3.27441 3.83047C3.27441 3.9363 3.31869 4.03467 3.40725 4.12557C3.44913 4.16972 3.49976 4.20464 3.55591 4.22811C3.61205 4.25158 3.67248 4.26307 3.73332 4.26186C3.95182 4.26186 4.10018 4.13181 4.1784 3.87172C4.26126 3.62324 4.36249 3.4352 4.48207 3.3076C4.60165 3.17999 4.78797 3.11619 5.04102 3.11619C5.2572 3.11624 5.43374 3.1795 5.57064 3.30596C5.63639 3.36423 5.68877 3.43602 5.7242 3.51642C5.75963 3.59681 5.77727 3.68391 5.77592 3.77176C5.77658 3.86352 5.7534 3.95387 5.70865 4.03398C5.66392 4.11437 5.60819 4.18811 5.54307 4.25309C5.47747 4.31867 5.37107 4.41586 5.22387 4.54465C5.08409 4.66489 4.95051 4.79214 4.82363 4.92592C4.72316 5.03538 4.64259 5.16155 4.58555 5.29875C4.52576 5.44017 4.49586 5.60749 4.49586 5.8007C4.49583 5.9549 4.53666 6.07105 4.61834 6.14918C4.65838 6.18777 4.7057 6.21801 4.75753 6.23814C4.80936 6.25828 4.86468 6.26792 4.92027 6.26648C5.15026 6.26652 5.28712 6.14691 5.33084 5.90766C5.35613 5.79497 5.37511 5.7162 5.38779 5.67133C5.40106 5.62479 5.41898 5.57971 5.44127 5.53676C5.47029 5.48326 5.50562 5.43343 5.54648 5.38832C5.60564 5.32221 5.66842 5.25943 5.73453 5.20027C6.01746 4.94727 6.21355 4.76727 6.32279 4.66027C6.43586 4.54825 6.53126 4.4197 6.60572 4.27902C6.68515 4.1318 6.72486 3.96042 6.72486 3.7649C6.72566 3.51921 6.65297 3.27889 6.51611 3.07484C6.37697 2.86322 6.17971 2.69587 5.92432 2.57279C5.66893 2.44972 5.37449 2.38818 5.04102 2.38818C4.68221 2.38826 4.36823 2.46187 4.09906 2.609C3.82992 2.75623 3.6252 2.94199 3.48488 3.16627ZM4.59076 7.4758C4.692 7.5654 4.82304 7.614 4.95822 7.61209C5.09097 7.6132 5.2192 7.56386 5.31697 7.47406C5.4205 7.38208 5.47227 7.25557 5.47227 7.09453C5.47327 7.02674 5.46065 6.95944 5.43518 6.89662C5.4097 6.83379 5.37187 6.77672 5.32394 6.72877C5.27601 6.68083 5.21895 6.64299 5.15613 6.61749C5.09331 6.592 5.02601 6.57937 4.95822 6.58035C4.88932 6.57879 4.8208 6.59113 4.75677 6.61663C4.69274 6.64213 4.63451 6.68028 4.58555 6.72879C4.53625 6.77588 4.4973 6.83272 4.47116 6.89569C4.44503 6.95865 4.43229 7.02637 4.43375 7.09453C4.43371 7.25788 4.48605 7.38497 4.59076 7.4758Z" fill="#161A20"/>
</g>
<defs>
<clipPath id="clip0_2910_6054">
<rect width="10" height="10" fill="white"/>
</clipPath>
</defs>
</svg>
