<svg width="11" height="10" viewBox="0 0 11 10" fill="none" xmlns="http://www.w3.org/2000/svg">
<path fill-rule="evenodd" clip-rule="evenodd" d="M6.11979 0.0371094H6.10604H6.10604C5.65098 0.0371071 5.29036 0.0371053 4.99968 0.0608544C4.70244 0.0851403 4.45092 0.13581 4.22127 0.252826C3.84886 0.442575 3.54609 0.745349 3.35634 1.11775C3.23933 1.34741 3.18866 1.59892 3.16437 1.89617C3.14062 2.18684 3.14062 2.54746 3.14063 3.00252V3.00253V3.01628V6.98342V6.99717C3.14062 7.45223 3.14062 7.81285 3.16437 8.10353C3.18866 8.40077 3.23933 8.65228 3.35634 8.88194C3.54609 9.25434 3.84886 9.55712 4.22127 9.74687C4.45092 9.86388 4.70244 9.91455 4.99968 9.93884C5.29036 9.96259 5.65098 9.96258 6.10603 9.96258H6.11979H7.29679H7.31055C7.7656 9.96258 8.12623 9.96259 8.4169 9.93884C8.71415 9.91455 8.96566 9.86388 9.19531 9.74687C9.56772 9.55712 9.87049 9.25434 10.0602 8.88194C10.1773 8.65228 10.2279 8.40077 10.2522 8.10353C10.276 7.81285 10.276 7.45223 10.276 6.99717V6.98342V3.01628V3.00252C10.276 2.54746 10.276 2.18684 10.2522 1.89617C10.2279 1.59892 10.1773 1.34741 10.0602 1.11775C9.87049 0.745349 9.56772 0.442575 9.19531 0.252826C8.96566 0.13581 8.71415 0.0851403 8.4169 0.0608544C8.12622 0.0371052 7.7656 0.0371071 7.31054 0.0371094H7.29679H6.11979ZM6.09906 2.6875C6.27165 2.6875 6.41156 2.82741 6.41156 3V4.68729L8.00004 4.6875C8.17263 4.68752 8.31252 4.82745 8.3125 5.00004C8.31248 5.17263 8.17255 5.31252 7.99996 5.3125L6.41156 5.31229V7C6.41156 7.17259 6.27165 7.3125 6.09906 7.3125C5.92647 7.3125 5.78656 7.17259 5.78656 7V5.31226L0.500014 5.3125C0.327425 5.31251 0.187508 5.1726 0.1875 5.00001C0.187492 4.82743 0.327397 4.68751 0.499986 4.6875L5.78656 4.68726V3C5.78656 2.82741 5.92647 2.6875 6.09906 2.6875Z" fill="white"/>
</svg>
